<mxfile host="app.diagrams.net" modified="2023-07-24T19:29:29.640Z" agent="Mozilla/5.0 (Windows NT 10.0; Win64; x64) AppleWebKit/537.36 (KHTML, like Gecko) Chrome/114.0.0.0 Safari/537.36" etag="KPWwek69epFp2tmGOS8X" version="21.6.5" type="device">
  <diagram name="Página-1" id="12NXJn124l3JYORipmwG">
    <mxGraphModel dx="1049" dy="621" grid="1" gridSize="10" guides="1" tooltips="1" connect="1" arrows="1" fold="1" page="1" pageScale="1" pageWidth="827" pageHeight="1169" math="0" shadow="0">
      <root>
        <mxCell id="0" />
        <mxCell id="1" parent="0" />
        <mxCell id="etLmmfsHEsekf192ePTm-1" value="&lt;div&gt;Uma clínica veterinária deseja cadastrar os pets que são atendidos em seu local.&lt;/div&gt;&lt;div&gt;&lt;br&gt;&lt;/div&gt;&lt;div&gt;- a clínica contém um endereço;&lt;/div&gt;&lt;div&gt;- os pets deverão ter nome, data de nascimento, tipo de pet;&lt;/div&gt;&lt;div&gt;- os pets deverão ter raça;&lt;/div&gt;&lt;div&gt;- os pets deverão ter donos;&lt;/div&gt;&lt;div&gt;- a clínica deseja cadastrar seus veterinários e todo atendimento de pet será feito por um veterinário;&lt;/div&gt;" style="text;html=1;align=center;verticalAlign=middle;resizable=0;points=[];autosize=1;strokeColor=none;fillColor=none;" vertex="1" parent="1">
          <mxGeometry x="134" y="48" width="560" height="110" as="geometry" />
        </mxCell>
        <mxCell id="etLmmfsHEsekf192ePTm-15" style="edgeStyle=orthogonalEdgeStyle;rounded=0;orthogonalLoop=1;jettySize=auto;html=1;exitX=1;exitY=0.5;exitDx=0;exitDy=0;entryX=0;entryY=0.5;entryDx=0;entryDy=0;endArrow=none;endFill=0;" edge="1" parent="1" source="etLmmfsHEsekf192ePTm-2" target="etLmmfsHEsekf192ePTm-13">
          <mxGeometry relative="1" as="geometry" />
        </mxCell>
        <mxCell id="etLmmfsHEsekf192ePTm-26" style="edgeStyle=orthogonalEdgeStyle;rounded=0;orthogonalLoop=1;jettySize=auto;html=1;exitX=0.5;exitY=0;exitDx=0;exitDy=0;entryX=0.5;entryY=1;entryDx=0;entryDy=0;endArrow=none;endFill=0;" edge="1" parent="1" source="etLmmfsHEsekf192ePTm-2" target="etLmmfsHEsekf192ePTm-3">
          <mxGeometry relative="1" as="geometry" />
        </mxCell>
        <mxCell id="etLmmfsHEsekf192ePTm-2" value="Clínica" style="rounded=0;whiteSpace=wrap;html=1;" vertex="1" parent="1">
          <mxGeometry x="90" y="335" width="120" height="60" as="geometry" />
        </mxCell>
        <mxCell id="etLmmfsHEsekf192ePTm-3" value="Endereço" style="ellipse;whiteSpace=wrap;html=1;" vertex="1" parent="1">
          <mxGeometry x="90" y="220" width="120" height="80" as="geometry" />
        </mxCell>
        <mxCell id="etLmmfsHEsekf192ePTm-17" style="edgeStyle=orthogonalEdgeStyle;rounded=0;orthogonalLoop=1;jettySize=auto;html=1;exitX=1;exitY=0.5;exitDx=0;exitDy=0;entryX=0;entryY=0.5;entryDx=0;entryDy=0;endArrow=none;endFill=0;" edge="1" parent="1" source="etLmmfsHEsekf192ePTm-4" target="etLmmfsHEsekf192ePTm-14">
          <mxGeometry relative="1" as="geometry" />
        </mxCell>
        <mxCell id="etLmmfsHEsekf192ePTm-23" style="edgeStyle=orthogonalEdgeStyle;rounded=0;orthogonalLoop=1;jettySize=auto;html=1;exitX=0.5;exitY=0;exitDx=0;exitDy=0;entryX=0.5;entryY=1;entryDx=0;entryDy=0;endArrow=none;endFill=0;" edge="1" parent="1" source="etLmmfsHEsekf192ePTm-4" target="etLmmfsHEsekf192ePTm-6">
          <mxGeometry relative="1" as="geometry" />
        </mxCell>
        <mxCell id="etLmmfsHEsekf192ePTm-24" style="edgeStyle=orthogonalEdgeStyle;rounded=0;orthogonalLoop=1;jettySize=auto;html=1;exitX=0.5;exitY=0;exitDx=0;exitDy=0;entryX=0.5;entryY=1;entryDx=0;entryDy=0;endArrow=none;endFill=0;" edge="1" parent="1" source="etLmmfsHEsekf192ePTm-4" target="etLmmfsHEsekf192ePTm-7">
          <mxGeometry relative="1" as="geometry" />
        </mxCell>
        <mxCell id="etLmmfsHEsekf192ePTm-25" style="edgeStyle=orthogonalEdgeStyle;rounded=0;orthogonalLoop=1;jettySize=auto;html=1;exitX=0.5;exitY=0;exitDx=0;exitDy=0;entryX=0.5;entryY=1;entryDx=0;entryDy=0;endArrow=none;endFill=0;" edge="1" parent="1" source="etLmmfsHEsekf192ePTm-4" target="etLmmfsHEsekf192ePTm-5">
          <mxGeometry relative="1" as="geometry" />
        </mxCell>
        <mxCell id="etLmmfsHEsekf192ePTm-29" style="edgeStyle=orthogonalEdgeStyle;rounded=0;orthogonalLoop=1;jettySize=auto;html=1;exitX=0.5;exitY=1;exitDx=0;exitDy=0;entryX=0.5;entryY=0;entryDx=0;entryDy=0;endArrow=none;endFill=0;" edge="1" parent="1" source="etLmmfsHEsekf192ePTm-4" target="etLmmfsHEsekf192ePTm-27">
          <mxGeometry relative="1" as="geometry" />
        </mxCell>
        <mxCell id="etLmmfsHEsekf192ePTm-30" style="edgeStyle=orthogonalEdgeStyle;rounded=0;orthogonalLoop=1;jettySize=auto;html=1;exitX=0.5;exitY=1;exitDx=0;exitDy=0;entryX=0.5;entryY=0;entryDx=0;entryDy=0;endArrow=none;endFill=0;" edge="1" parent="1" source="etLmmfsHEsekf192ePTm-4" target="etLmmfsHEsekf192ePTm-28">
          <mxGeometry relative="1" as="geometry" />
        </mxCell>
        <mxCell id="etLmmfsHEsekf192ePTm-4" value="Pet" style="rounded=0;whiteSpace=wrap;html=1;" vertex="1" parent="1">
          <mxGeometry x="360" y="335" width="120" height="60" as="geometry" />
        </mxCell>
        <mxCell id="etLmmfsHEsekf192ePTm-5" value="Nome" style="ellipse;whiteSpace=wrap;html=1;" vertex="1" parent="1">
          <mxGeometry x="290" y="230" width="80" height="50" as="geometry" />
        </mxCell>
        <mxCell id="etLmmfsHEsekf192ePTm-6" value="data de nascimento" style="ellipse;whiteSpace=wrap;html=1;" vertex="1" parent="1">
          <mxGeometry x="382" y="230" width="76" height="50" as="geometry" />
        </mxCell>
        <mxCell id="etLmmfsHEsekf192ePTm-7" value="Tipo de pet" style="ellipse;whiteSpace=wrap;html=1;" vertex="1" parent="1">
          <mxGeometry x="470" y="230" width="70" height="50" as="geometry" />
        </mxCell>
        <mxCell id="etLmmfsHEsekf192ePTm-11" style="edgeStyle=orthogonalEdgeStyle;rounded=0;orthogonalLoop=1;jettySize=auto;html=1;exitX=0.5;exitY=0;exitDx=0;exitDy=0;entryX=0.5;entryY=1;entryDx=0;entryDy=0;endArrow=none;endFill=0;" edge="1" parent="1" source="etLmmfsHEsekf192ePTm-8" target="etLmmfsHEsekf192ePTm-9">
          <mxGeometry relative="1" as="geometry" />
        </mxCell>
        <mxCell id="etLmmfsHEsekf192ePTm-8" value="Veterinário" style="rounded=0;whiteSpace=wrap;html=1;" vertex="1" parent="1">
          <mxGeometry x="620" y="335" width="120" height="60" as="geometry" />
        </mxCell>
        <mxCell id="etLmmfsHEsekf192ePTm-9" value="Nome" style="ellipse;whiteSpace=wrap;html=1;" vertex="1" parent="1">
          <mxGeometry x="580" y="230" width="80" height="50" as="geometry" />
        </mxCell>
        <mxCell id="etLmmfsHEsekf192ePTm-12" style="edgeStyle=orthogonalEdgeStyle;rounded=0;orthogonalLoop=1;jettySize=auto;html=1;exitX=0.5;exitY=1;exitDx=0;exitDy=0;entryX=0.5;entryY=0;entryDx=0;entryDy=0;endArrow=none;endFill=0;" edge="1" parent="1" source="etLmmfsHEsekf192ePTm-10" target="etLmmfsHEsekf192ePTm-8">
          <mxGeometry relative="1" as="geometry" />
        </mxCell>
        <mxCell id="etLmmfsHEsekf192ePTm-10" value="CRMV" style="ellipse;whiteSpace=wrap;html=1;" vertex="1" parent="1">
          <mxGeometry x="690" y="230" width="80" height="50" as="geometry" />
        </mxCell>
        <mxCell id="etLmmfsHEsekf192ePTm-16" style="edgeStyle=orthogonalEdgeStyle;rounded=0;orthogonalLoop=1;jettySize=auto;html=1;exitX=1;exitY=0.5;exitDx=0;exitDy=0;entryX=0;entryY=0.5;entryDx=0;entryDy=0;endArrow=none;endFill=0;" edge="1" parent="1" source="etLmmfsHEsekf192ePTm-13" target="etLmmfsHEsekf192ePTm-4">
          <mxGeometry relative="1" as="geometry" />
        </mxCell>
        <mxCell id="etLmmfsHEsekf192ePTm-13" value="Possui" style="rhombus;whiteSpace=wrap;html=1;" vertex="1" parent="1">
          <mxGeometry x="240" y="325" width="80" height="80" as="geometry" />
        </mxCell>
        <mxCell id="etLmmfsHEsekf192ePTm-18" style="edgeStyle=orthogonalEdgeStyle;rounded=0;orthogonalLoop=1;jettySize=auto;html=1;exitX=1;exitY=0.5;exitDx=0;exitDy=0;entryX=0;entryY=0.5;entryDx=0;entryDy=0;endArrow=none;endFill=0;" edge="1" parent="1" source="etLmmfsHEsekf192ePTm-14" target="etLmmfsHEsekf192ePTm-8">
          <mxGeometry relative="1" as="geometry" />
        </mxCell>
        <mxCell id="etLmmfsHEsekf192ePTm-14" value="Cadastra" style="rhombus;whiteSpace=wrap;html=1;" vertex="1" parent="1">
          <mxGeometry x="510" y="325" width="80" height="80" as="geometry" />
        </mxCell>
        <mxCell id="etLmmfsHEsekf192ePTm-19" value="1" style="text;html=1;align=center;verticalAlign=middle;resizable=0;points=[];autosize=1;strokeColor=none;fillColor=none;" vertex="1" parent="1">
          <mxGeometry x="590" y="335" width="30" height="30" as="geometry" />
        </mxCell>
        <mxCell id="etLmmfsHEsekf192ePTm-20" value="N" style="text;html=1;align=center;verticalAlign=middle;resizable=0;points=[];autosize=1;strokeColor=none;fillColor=none;" vertex="1" parent="1">
          <mxGeometry x="480" y="335" width="30" height="30" as="geometry" />
        </mxCell>
        <mxCell id="etLmmfsHEsekf192ePTm-21" value="N" style="text;html=1;align=center;verticalAlign=middle;resizable=0;points=[];autosize=1;strokeColor=none;fillColor=none;" vertex="1" parent="1">
          <mxGeometry x="330" y="335" width="30" height="30" as="geometry" />
        </mxCell>
        <mxCell id="etLmmfsHEsekf192ePTm-22" value="1" style="text;html=1;align=center;verticalAlign=middle;resizable=0;points=[];autosize=1;strokeColor=none;fillColor=none;" vertex="1" parent="1">
          <mxGeometry x="210" y="335" width="30" height="30" as="geometry" />
        </mxCell>
        <mxCell id="etLmmfsHEsekf192ePTm-27" value="Dono" style="ellipse;whiteSpace=wrap;html=1;" vertex="1" parent="1">
          <mxGeometry x="330" y="440" width="80" height="50" as="geometry" />
        </mxCell>
        <mxCell id="etLmmfsHEsekf192ePTm-28" value="Raça" style="ellipse;whiteSpace=wrap;html=1;" vertex="1" parent="1">
          <mxGeometry x="430" y="440" width="80" height="50" as="geometry" />
        </mxCell>
      </root>
    </mxGraphModel>
  </diagram>
</mxfile>
